<svg xmlns="http://www.w3.org/2000/svg" height="132pt" version="1.1" viewBox="-1 0 132 132" width="132pt">
<path d="M 93.148438 80.832031 C 109.5 57.742188 104.03125 25.769531 80.941406 9.421875 C 57.851562 -6.925781 25.878906 -1.460938 9.53125 21.632812 C -6.816406 44.722656 -1.351562 76.691406 21.742188 93.039062 C 38.222656 104.707031 60.011719 105.605469 77.394531 95.339844 L 110.164062 127.882812 C 114.242188 132.175781 121.027344 132.347656 125.320312 128.269531 C 129.613281 124.195312 129.785156 117.410156 125.710938 113.117188 C 125.582031 112.980469 125.457031 112.855469 125.320312 112.726562 Z M 51.308594 84.332031 C 33.0625 84.335938 18.269531 69.554688 18.257812 51.308594 C 18.253906 33.0625 33.035156 18.269531 51.285156 18.261719 C 69.507812 18.253906 84.292969 33.011719 84.328125 51.234375 C 84.359375 69.484375 69.585938 84.300781 51.332031 84.332031 C 51.324219 84.332031 51.320312 84.332031 51.308594 84.332031 Z M 51.308594 84.332031 " style=" stroke:none;fill-rule:nonzero;fill:rgb(0%,0%,0%);fill-opacity:1;"/>
</svg>